<?xml version="1.0" encoding="UTF-8"?>
<svg id="Layer_2" data-name="Layer 2" xmlns="http://www.w3.org/2000/svg" viewBox="0 0 100 100">
  <defs>
    <style>
      .cls-1 {
        fill: none;
      }

      .cls-1, .cls-2, .cls-3, .cls-4, .cls-5 {
        stroke-width: 0px;
      }

      .cls-2 {
        fill: #225fa4;
      }

      .cls-3 {
        fill: #232c5b;
      }

      .cls-4 {
        fill: #1782c5;
      }

      .cls-5 {
        fill: #00b9ea;
      }
    </style>
  </defs>
  <g id="Layer_2-2" data-name="Layer 2">
    <g>
      <rect class="cls-1" width="100" height="100"/>
      <g id="Layer_2-2" data-name="Layer 2-2">
        <g id="Layer_1-2" data-name="Layer 1-2">
          <g>
            <path class="cls-5" d="M36.66,33.06h0c4.32-4.29,10.27-6.95,16.83-6.95,7.92,0,14.94,3.87,19.29,9.82,2.55-5.91,6.66-10.98,11.81-14.71-4.72-1.7-9.8-2.64-15.11-2.64-13,0-24.69,5.58-32.82,14.48Z"/>
            <path class="cls-4" d="M24.53,39.27c0,11.72,5.35,22.2,13.73,29.12.07.05.13.1.2.15-5.4-4.38-8.86-11.07-8.86-18.55,0-.41.01-.82.03-1.23,0-.1.02-.19.02-.29.02-.31.04-.62.07-.93.01-.11.03-.22.04-.33.03-.29.07-.58.11-.87.02-.11.04-.22.06-.32.05-.29.1-.57.15-.85.02-.08.04-.17.06-.25.07-.3.13-.61.21-.91.02-.07.04-.14.06-.21.08-.31.17-.62.26-.92.01-.05.03-.09.05-.14.1-.33.21-.65.33-.97.01-.03.02-.06.04-.09.13-.34.26-.67.4-1,0-.02.02-.03.02-.05.15-.34.3-.68.46-1.01h0c1.18-2.45,2.77-4.66,4.67-6.55h0c8.13-8.9,19.82-14.48,32.82-14.48,5.3,0,10.39.93,15.11,2.64.29-.21.58-.42.88-.62-7.94-8.66-19.33-14.09-31.97-14.09-4.59,0-9.01.72-13.16,2.04-9.56,6.85-15.8,18.05-15.8,30.71,0,0,.01,0,0,0Z"/>
            <path class="cls-2" d="M42.26,81.04c12.76,0,23.96-6.68,30.31-16.73.07-.09.14-.17.2-.26-4.35,5.95-11.37,9.82-19.29,9.82-.39,0-.77-.01-1.15-.03-.13,0-.25-.02-.38-.03-.25-.02-.51-.03-.76-.06-.15-.01-.3-.03-.45-.05-.22-.03-.45-.05-.67-.09-.16-.02-.32-.05-.48-.07-.21-.03-.42-.07-.63-.11-.16-.03-.32-.06-.49-.1-.2-.04-.4-.09-.6-.14l-.48-.12c-.2-.05-.4-.11-.59-.17-.28-.08-.56-.17-.83-.26-.2-.07-.4-.13-.6-.2-.2-.07-.4-.15-.59-.23-.14-.05-.27-.1-.41-.16-.2-.08-.4-.17-.6-.26-.12-.06-.25-.11-.37-.17-.2-.1-.4-.19-.61-.29-.11-.06-.22-.11-.33-.17-.21-.11-.41-.22-.62-.33-.09-.05-.19-.11-.28-.16-.22-.13-.43-.25-.65-.38-.05-.03-.1-.07-.15-.1-.8-.51-1.57-1.05-2.3-1.65-.07-.05-.14-.09-.2-.15-8.39-6.92-13.73-17.4-13.73-29.12,0-12.66,6.23-23.86,15.8-30.71h-.03c-.91.29-1.81.62-2.7.97-.21.08-.43.16-.64.25-.36.15-.71.3-1.06.46-.23.1-.45.2-.68.31-.34.16-.69.32-1.03.49-.22.11-.44.22-.66.34-.34.18-.68.35-1.02.54-.17.09-.33.19-.5.29-.65.37-1.3.76-1.93,1.17-.2.13-.41.26-.61.39-.3.2-.6.41-.9.62-.22.15-.44.31-.65.47-.29.21-.57.42-.85.64-.22.17-.44.34-.66.52-.27.22-.54.43-.81.66-.23.19-.45.39-.67.58-.43.37-.85.76-1.26,1.15-.24.23-.49.46-.72.69-.23.22-.45.46-.67.68-.22.23-.44.45-.65.69-.22.23-.43.47-.64.7-.22.24-.43.49-.64.74-.2.23-.4.46-.59.7-.24.29-.46.58-.69.88-.16.2-.32.4-.47.61-.36.48-.7.97-1.04,1.46-.15.21-.28.43-.43.65-.21.32-.42.64-.62.97-.15.23-.29.47-.43.71-.19.32-.38.65-.56.98-.13.23-.26.47-.39.7-.2.37-.39.75-.58,1.14-.1.19-.2.38-.29.58-.27.56-.53,1.14-.78,1.71-.07.17-.14.35-.21.53-.18.43-.35.85-.51,1.29-.09.23-.17.46-.25.69-.14.39-.28.79-.4,1.19-.08.23-.15.47-.22.7-.13.43-.25.87-.37,1.31-.05.2-.11.39-.16.59-.16.63-.31,1.27-.44,1.91-.02.11-.04.22-.06.33-.11.54-.21,1.09-.29,1.64-.04.22-.06.44-.1.67-.06.45-.12.9-.17,1.35-.03.24-.05.48-.07.72-.04.46-.08.93-.11,1.4,0,.21-.03.43-.04.64-.03.68-.05,1.36-.05,2.05,0,5.66,1.1,11.07,3.08,16.04,6.5,9.09,17.14,15.01,29.16,15.01v-.02h0Z"/>
            <path class="cls-3" d="M72.77,64.04c-.07.09-.14.17-.2.26-6.35,10.05-17.54,16.73-30.31,16.73-12.02,0-22.66-5.92-29.16-15.01h0c1.59,4,3.77,7.71,6.41,11.03.01.01.02.03.03.04.31.39.62.76.94,1.14.05.06.11.12.16.19.97,1.12,1.99,2.18,3.07,3.2.06.06.12.12.19.18.31.29.63.58.95.86.13.12.27.23.4.35.31.27.63.53.95.79.13.1.26.21.39.31.58.46,1.17.9,1.77,1.33.18.13.35.25.53.38.29.2.58.39.88.58.23.15.46.3.69.44.28.18.57.35.85.52.27.16.55.32.83.48.29.17.58.33.88.49.47.25.94.49,1.42.73.24.12.49.23.74.35.33.16.67.31,1.01.46.25.11.5.22.75.32.37.15.75.3,1.13.45.21.08.42.17.64.24.57.21,1.15.4,1.74.59.18.06.37.11.56.16.44.13.88.26,1.32.38.22.06.45.12.68.17.44.11.88.21,1.32.31.2.04.39.09.59.13.63.13,1.26.24,1.9.34.11.02.22.03.33.05.54.08,1.09.15,1.64.21.21.02.42.04.63.06.48.04.96.08,1.44.11.2.01.41.03.61.04.67.03,1.34.05,2.02.05,12.64,0,24.02-5.43,31.97-14.07-5.56-3.78-9.99-9.09-12.69-15.33v-.04h0Z"/>
          </g>
        </g>
      </g>
    </g>
  </g>
</svg>